<svg width="520" height="698" viewBox="0 0 520 698" fill="none" xmlns="http://www.w3.org/2000/svg">
<rect width="520" height="698" fill="white"/>
<path d="M0 181C0 114.726 53.7258 61 120 61H400V61C400 127.274 346.274 181 280 181H0V181Z" fill="#1565C0" fill-opacity="0.8"/>
<path d="M180 521C113.726 521 60 467.274 60 401L60 121C126.274 121 180 174.726 180 241V521Z" fill="#7CE1FB" fill-opacity="0.8"/>
<path d="M120 461C120 394.726 173.726 341 240 341H520C520 407.274 466.274 461 400 461H120Z" fill="#5BC5F2" fill-opacity="0.8"/>
<path d="M460 401C393.726 401 340 347.274 340 281V0C406.274 0 460 53.7258 460 120V401Z" fill="#2089E1" fill-opacity="0.8"/>
<rect x="335" y="61" width="5" height="120" fill="#F5F5F5"/>
<rect x="180" y="341" width="5" height="120" fill="#F5F5F5"/>
<rect x="60" y="186" width="5" height="120" transform="rotate(-90 60 186)" fill="#F5F5F5"/>
<rect x="340" y="341" width="5" height="120" transform="rotate(-90 340 341)" fill="#F5F5F5"/>
<path d="M40.8652 637V587.545H76.5073V598.364H54.2914V606.864H74.6721V617.682H54.2914V626.182H76.4107V637H40.8652ZM89.166 637V587.545H110.513C114.183 587.545 117.395 588.27 120.148 589.719C122.9 591.168 125.041 593.204 126.571 595.828C128.1 598.452 128.865 601.519 128.865 605.028C128.865 608.57 128.076 611.637 126.498 614.229C124.937 616.821 122.739 618.817 119.906 620.217C117.089 621.618 113.797 622.318 110.03 622.318H97.2797V611.886H107.325C108.903 611.886 110.247 611.613 111.358 611.065C112.485 610.502 113.346 609.705 113.942 608.675C114.553 607.644 114.859 606.429 114.859 605.028C114.859 603.612 114.553 602.404 113.942 601.406C113.346 600.392 112.485 599.619 111.358 599.088C110.247 598.541 108.903 598.267 107.325 598.267H102.592V637H89.166ZM153.217 587.545V637H139.791V587.545H153.217ZM211.751 606.091H198.131C198.035 604.964 197.777 603.942 197.358 603.024C196.956 602.107 196.393 601.318 195.668 600.658C194.96 599.982 194.099 599.466 193.084 599.112C192.07 598.742 190.919 598.557 189.631 598.557C187.377 598.557 185.47 599.104 183.908 600.199C182.363 601.294 181.188 602.863 180.383 604.908C179.594 606.952 179.199 609.407 179.199 612.273C179.199 615.299 179.602 617.835 180.407 619.879C181.228 621.908 182.411 623.437 183.957 624.467C185.502 625.482 187.361 625.989 189.535 625.989C190.774 625.989 191.885 625.836 192.867 625.53C193.849 625.208 194.702 624.749 195.427 624.153C196.151 623.558 196.739 622.841 197.189 622.004C197.656 621.151 197.97 620.193 198.131 619.131L211.751 619.227C211.59 621.32 211.002 623.453 209.988 625.626C208.974 627.784 207.533 629.78 205.665 631.615C203.814 633.434 201.52 634.899 198.783 636.01C196.046 637.121 192.867 637.676 189.245 637.676C184.705 637.676 180.632 636.702 177.026 634.754C173.436 632.806 170.595 629.941 168.502 626.158C166.425 622.375 165.387 617.746 165.387 612.273C165.387 606.767 166.449 602.131 168.574 598.364C170.699 594.58 173.565 591.723 177.171 589.791C180.777 587.843 184.802 586.869 189.245 586.869C192.368 586.869 195.242 587.296 197.866 588.149C200.49 589.002 202.792 590.25 204.772 591.892C206.752 593.518 208.346 595.522 209.553 597.905C210.76 600.287 211.493 603.016 211.751 606.091ZM223.842 637V587.545H259.484V598.364H237.268V606.864H257.649V617.682H237.268V626.182H259.387V637H223.842ZM314.932 587.545V637H303.728L285.858 611.017H285.569V637H272.143V587.545H283.54L301.12 613.432H301.506V587.545H314.932ZM325.931 598.364V587.545H368.914V598.364H354.039V637H340.806V598.364H325.931ZM379.967 637V587.545H401.313C404.984 587.545 408.195 588.214 410.948 589.55C413.701 590.886 415.842 592.81 417.372 595.321C418.901 597.832 419.666 600.843 419.666 604.352C419.666 607.894 418.877 610.88 417.299 613.311C415.738 615.742 413.54 617.577 410.707 618.817C407.89 620.056 404.597 620.676 400.83 620.676H388.08V610.244H398.126C399.704 610.244 401.048 610.051 402.159 609.665C403.285 609.262 404.147 608.626 404.742 607.757C405.354 606.888 405.66 605.753 405.66 604.352C405.66 602.936 405.354 601.785 404.742 600.899C404.147 599.998 403.285 599.338 402.159 598.919C401.048 598.484 399.704 598.267 398.126 598.267H393.393V637H379.967ZM408.944 614.301L421.308 637H406.722L394.649 614.301H408.944ZM444.235 637H429.747L446.07 587.545H464.423L480.747 637H466.258L455.44 601.165H455.053L444.235 637ZM441.531 617.489H468.769V627.534H441.531V617.489Z" fill="#0E2A5A"/>
<path d="M74.4054 669V655.909H79.5701C80.563 655.909 81.4089 656.099 82.1078 656.478C82.8066 656.853 83.3393 657.375 83.7058 658.044C84.0765 658.709 84.2619 659.476 84.2619 660.345C84.2619 661.214 84.0744 661.982 83.6994 662.646C83.3244 663.311 82.7811 663.829 82.0694 664.2C81.362 664.57 80.5055 664.756 79.4998 664.756H76.2079V662.538H79.0524C79.585 662.538 80.024 662.446 80.3691 662.263C80.7186 662.075 80.9785 661.817 81.149 661.489C81.3237 661.157 81.411 660.776 81.411 660.345C81.411 659.911 81.3237 659.531 81.149 659.207C80.9785 658.879 80.7186 658.626 80.3691 658.447C80.0197 658.263 79.5765 658.172 79.0396 658.172H77.1731V669H74.4054ZM88.5597 669V655.909H91.3274V666.718H96.9396V669H88.5597ZM103.863 669H100.897L105.416 655.909H108.983L113.496 669H110.53L107.251 658.901H107.148L103.863 669ZM103.678 663.854H110.683V666.015H103.678V663.854ZM128.521 655.909V669H126.13L120.435 660.761H120.339V669H117.571V655.909H120L125.651 664.142H125.766V655.909H128.521ZM147.075 659.674C147.024 659.158 146.805 658.758 146.417 658.472C146.029 658.187 145.503 658.044 144.838 658.044C144.386 658.044 144.005 658.108 143.694 658.236C143.383 658.359 143.144 658.532 142.978 658.754C142.816 658.975 142.735 659.227 142.735 659.508C142.727 659.742 142.776 659.947 142.882 660.121C142.993 660.296 143.144 660.447 143.336 660.575C143.528 660.699 143.749 660.808 144.001 660.901C144.252 660.991 144.521 661.067 144.806 661.131L145.982 661.413C146.553 661.54 147.077 661.711 147.555 661.924C148.032 662.137 148.445 662.399 148.795 662.71C149.144 663.021 149.415 663.388 149.607 663.81C149.803 664.232 149.903 664.715 149.907 665.261C149.903 666.062 149.698 666.756 149.293 667.344C148.893 667.928 148.313 668.382 147.555 668.706C146.8 669.026 145.891 669.185 144.825 669.185C143.768 669.185 142.848 669.023 142.064 668.7C141.284 668.376 140.675 667.896 140.236 667.261C139.801 666.622 139.573 665.832 139.552 664.89H142.23C142.26 665.329 142.386 665.695 142.607 665.989C142.833 666.279 143.134 666.499 143.509 666.648C143.888 666.793 144.316 666.865 144.793 666.865C145.262 666.865 145.669 666.797 146.014 666.661C146.364 666.524 146.634 666.335 146.826 666.092C147.018 665.849 147.114 665.57 147.114 665.254C147.114 664.96 147.026 664.713 146.852 664.513C146.681 664.312 146.43 664.142 146.097 664.001C145.769 663.861 145.366 663.733 144.889 663.618L143.464 663.26C142.36 662.991 141.489 662.572 140.849 662.001C140.21 661.43 139.893 660.661 139.897 659.693C139.893 658.901 140.104 658.208 140.53 657.616C140.96 657.023 141.55 656.561 142.3 656.229C143.05 655.896 143.903 655.73 144.857 655.73C145.829 655.73 146.677 655.896 147.401 656.229C148.13 656.561 148.697 657.023 149.102 657.616C149.506 658.208 149.715 658.894 149.728 659.674H147.075ZM154.269 655.909H157.682L161.287 664.705H161.441L165.046 655.909H168.459V669H165.774V660.479H165.666L162.278 668.936H160.45L157.062 660.447H156.953V669H154.269V655.909ZM175.496 669H172.53L177.049 655.909H180.616L185.129 669H182.163L178.884 658.901H178.781L175.496 669ZM175.31 663.854H182.316V666.015H175.31V663.854ZM189.204 669V655.909H194.369C195.358 655.909 196.201 656.086 196.9 656.44C197.603 656.789 198.138 657.286 198.505 657.929C198.875 658.568 199.061 659.32 199.061 660.185C199.061 661.055 198.873 661.803 198.498 662.429C198.123 663.051 197.58 663.528 196.868 663.861C196.161 664.193 195.304 664.359 194.299 664.359H190.841V662.135H193.851C194.38 662.135 194.819 662.062 195.168 661.918C195.517 661.773 195.777 661.555 195.948 661.266C196.123 660.976 196.21 660.616 196.21 660.185C196.21 659.751 196.123 659.384 195.948 659.086C195.777 658.788 195.515 658.562 195.162 658.408C194.812 658.251 194.371 658.172 193.838 658.172H191.972V669H189.204ZM196.274 663.043L199.527 669H196.472L193.289 663.043H196.274ZM203.018 658.191V655.909H213.77V658.191H209.762V669H207.026V658.191H203.018ZM218.04 669V655.909H226.861V658.191H220.808V661.31H226.407V663.592H220.808V666.718H226.887V669H218.04ZM231.562 669V655.909H236.726C237.715 655.909 238.559 656.086 239.258 656.44C239.961 656.789 240.496 657.286 240.862 657.929C241.233 658.568 241.418 659.32 241.418 660.185C241.418 661.055 241.231 661.803 240.856 662.429C240.481 663.051 239.937 663.528 239.226 663.861C238.518 664.193 237.662 664.359 236.656 664.359H233.198V662.135H236.209C236.737 662.135 237.176 662.062 237.525 661.918C237.875 661.773 238.135 661.555 238.305 661.266C238.48 660.976 238.567 660.616 238.567 660.185C238.567 659.751 238.48 659.384 238.305 659.086C238.135 658.788 237.873 658.562 237.519 658.408C237.17 658.251 236.729 658.172 236.196 658.172H234.329V669H231.562ZM238.631 663.043L241.885 669H238.829L235.646 663.043H238.631ZM247.415 669.166C246.993 669.166 246.631 669.017 246.328 668.719C246.03 668.416 245.881 668.054 245.881 667.632C245.881 667.214 246.03 666.857 246.328 666.558C246.631 666.26 246.993 666.111 247.415 666.111C247.824 666.111 248.182 666.26 248.488 666.558C248.795 666.857 248.949 667.214 248.949 667.632C248.949 667.913 248.876 668.171 248.731 668.406C248.591 668.636 248.405 668.821 248.175 668.962C247.945 669.098 247.692 669.166 247.415 669.166ZM259.786 669V655.909H262.554V666.718H268.166V669H259.786ZM275.089 669H272.124L276.643 655.909H280.21L284.722 669H281.756L278.477 658.901H278.375L275.089 669ZM274.904 663.854H281.91V666.015H274.904V663.854ZM296.884 655.909H299.652V664.411C299.652 665.365 299.424 666.2 298.968 666.916C298.516 667.632 297.883 668.19 297.069 668.591C296.255 668.987 295.307 669.185 294.225 669.185C293.138 669.185 292.188 668.987 291.374 668.591C290.56 668.19 289.927 667.632 289.475 666.916C289.024 666.2 288.798 665.365 288.798 664.411V655.909H291.566V664.174C291.566 664.673 291.674 665.116 291.892 665.504C292.113 665.891 292.424 666.196 292.825 666.418C293.225 666.639 293.692 666.75 294.225 666.75C294.762 666.75 295.228 666.639 295.625 666.418C296.025 666.196 296.334 665.891 296.551 665.504C296.773 665.116 296.884 664.673 296.884 664.174V655.909ZM315.378 655.909V669H312.988L307.292 660.761H307.197V669H304.429V655.909H306.858L312.508 664.142H312.623V655.909H315.378ZM331.716 660.492H328.916C328.865 660.13 328.76 659.808 328.603 659.527C328.445 659.241 328.243 658.999 327.995 658.798C327.748 658.598 327.463 658.445 327.139 658.338C326.819 658.232 326.472 658.178 326.097 658.178C325.419 658.178 324.829 658.347 324.326 658.683C323.824 659.016 323.434 659.501 323.157 660.141C322.88 660.776 322.741 661.547 322.741 662.455C322.741 663.388 322.88 664.172 323.157 664.807C323.438 665.442 323.83 665.921 324.333 666.245C324.836 666.569 325.417 666.731 326.078 666.731C326.449 666.731 326.792 666.682 327.107 666.584C327.426 666.486 327.71 666.343 327.957 666.156C328.204 665.964 328.409 665.732 328.571 665.459C328.737 665.186 328.852 664.875 328.916 664.526L331.716 664.538C331.643 665.139 331.462 665.719 331.172 666.277C330.887 666.831 330.501 667.327 330.015 667.766C329.534 668.201 328.958 668.546 328.289 668.802C327.625 669.053 326.873 669.179 326.033 669.179C324.865 669.179 323.821 668.915 322.901 668.386C321.985 667.858 321.26 667.093 320.728 666.092C320.199 665.09 319.935 663.878 319.935 662.455C319.935 661.027 320.203 659.812 320.74 658.811C321.277 657.81 322.006 657.047 322.926 656.523C323.847 655.994 324.882 655.73 326.033 655.73C326.792 655.73 327.495 655.837 328.142 656.05C328.794 656.263 329.372 656.574 329.875 656.983C330.377 657.388 330.787 657.884 331.102 658.472C331.422 659.06 331.626 659.734 331.716 660.492ZM336.2 669V655.909H338.968V661.31H344.587V655.909H347.348V669H344.587V663.592H338.968V669H336.2ZM358.796 669V655.909H367.464V658.191H361.564V661.31H366.888V663.592H361.564V669H358.796ZM372.447 669H369.481L374 655.909H377.567L382.08 669H379.114L375.835 658.901H375.732L372.447 669ZM372.262 663.854H379.267V666.015H372.262V663.854ZM392.958 659.674C392.907 659.158 392.688 658.758 392.3 658.472C391.912 658.187 391.386 658.044 390.721 658.044C390.269 658.044 389.888 658.108 389.577 658.236C389.266 658.359 389.027 658.532 388.861 658.754C388.699 658.975 388.618 659.227 388.618 659.508C388.609 659.742 388.658 659.947 388.765 660.121C388.876 660.296 389.027 660.447 389.219 660.575C389.411 660.699 389.632 660.808 389.884 660.901C390.135 660.991 390.403 661.067 390.689 661.131L391.865 661.413C392.436 661.54 392.96 661.711 393.438 661.924C393.915 662.137 394.328 662.399 394.678 662.71C395.027 663.021 395.298 663.388 395.489 663.81C395.685 664.232 395.786 664.715 395.79 665.261C395.786 666.062 395.581 666.756 395.176 667.344C394.776 667.928 394.196 668.382 393.438 668.706C392.683 669.026 391.773 669.185 390.708 669.185C389.651 669.185 388.731 669.023 387.947 668.7C387.167 668.376 386.558 667.896 386.119 667.261C385.684 666.622 385.456 665.832 385.435 664.89H388.113C388.143 665.329 388.268 665.695 388.49 665.989C388.716 666.279 389.016 666.499 389.391 666.648C389.771 666.793 390.199 666.865 390.676 666.865C391.145 666.865 391.552 666.797 391.897 666.661C392.246 666.524 392.517 666.335 392.709 666.092C392.901 665.849 392.996 665.57 392.996 665.254C392.996 664.96 392.909 664.713 392.734 664.513C392.564 664.312 392.313 664.142 391.98 664.001C391.652 663.861 391.249 663.733 390.772 663.618L389.347 663.26C388.243 662.991 387.371 662.572 386.732 662.001C386.093 661.43 385.776 660.661 385.78 659.693C385.776 658.901 385.987 658.208 386.413 657.616C386.843 657.023 387.433 656.561 388.183 656.229C388.933 655.896 389.786 655.73 390.74 655.73C391.712 655.73 392.56 655.896 393.284 656.229C394.013 656.561 394.58 657.023 394.984 657.616C395.389 658.208 395.598 658.894 395.611 659.674H392.958ZM399.653 658.191V655.909H410.404V658.191H406.396V669H403.661V658.191H399.653ZM414.675 669V655.909H423.496V658.191H417.443V661.31H423.042V663.592H417.443V666.718H423.521V669H414.675ZM428.196 669V655.909H433.361C434.35 655.909 435.194 656.086 435.892 656.44C436.596 656.789 437.13 657.286 437.497 657.929C437.868 658.568 438.053 659.32 438.053 660.185C438.053 661.055 437.865 661.803 437.49 662.429C437.115 663.051 436.572 663.528 435.86 663.861C435.153 664.193 434.297 664.359 433.291 664.359H429.833V662.135H432.843C433.372 662.135 433.811 662.062 434.16 661.918C434.51 661.773 434.77 661.555 434.94 661.266C435.115 660.976 435.202 660.616 435.202 660.185C435.202 659.751 435.115 659.384 434.94 659.086C434.77 658.788 434.507 658.562 434.154 658.408C433.804 658.251 433.363 658.172 432.831 658.172H430.964V669H428.196ZM435.266 663.043L438.52 669H435.464L432.281 663.043H435.266ZM444.049 669.166C443.627 669.166 443.265 669.017 442.963 668.719C442.664 668.416 442.515 668.054 442.515 667.632C442.515 667.214 442.664 666.857 442.963 666.558C443.265 666.26 443.627 666.111 444.049 666.111C444.458 666.111 444.816 666.26 445.123 666.558C445.43 666.857 445.583 667.214 445.583 667.632C445.583 667.913 445.511 668.171 445.366 668.406C445.225 668.636 445.04 668.821 444.81 668.962C444.58 669.098 444.326 669.166 444.049 669.166Z" fill="#FF6B4A"/>
<path d="M150.566 697V683.909H159.388V686.191H153.334V689.31H158.934V691.592H153.334V694.718H159.413V697H150.566ZM166.453 683.909L169.617 693.855H169.739L172.909 683.909H175.977L171.464 697H167.898L163.378 683.909H166.453ZM180.053 697V683.909H188.874V686.191H182.821V689.31H188.42V691.592H182.821V694.718H188.899V697H180.053ZM204.524 683.909V697H202.133L196.438 688.761H196.342V697H193.574V683.909H196.003L201.654 692.142H201.769V683.909H204.524ZM208.812 686.191V683.909H219.563V686.191H215.556V697H212.82V686.191H208.812ZM230.936 687.674C230.884 687.158 230.665 686.758 230.277 686.472C229.889 686.187 229.363 686.044 228.698 686.044C228.247 686.044 227.865 686.108 227.554 686.236C227.243 686.359 227.005 686.532 226.838 686.754C226.676 686.975 226.595 687.227 226.595 687.508C226.587 687.742 226.636 687.947 226.742 688.121C226.853 688.296 227.005 688.447 227.196 688.575C227.388 688.699 227.61 688.808 227.861 688.901C228.112 688.991 228.381 689.067 228.666 689.131L229.843 689.413C230.414 689.54 230.938 689.711 231.415 689.924C231.892 690.137 232.306 690.399 232.655 690.71C233.005 691.021 233.275 691.388 233.467 691.81C233.663 692.232 233.763 692.715 233.767 693.261C233.763 694.062 233.559 694.756 233.154 695.344C232.753 695.928 232.174 696.382 231.415 696.706C230.661 697.026 229.751 697.185 228.686 697.185C227.629 697.185 226.708 697.023 225.924 696.7C225.144 696.376 224.535 695.896 224.096 695.261C223.661 694.622 223.434 693.832 223.412 692.89H226.09C226.12 693.329 226.246 693.695 226.468 693.989C226.693 694.279 226.994 694.499 227.369 694.648C227.748 694.793 228.176 694.865 228.654 694.865C229.122 694.865 229.529 694.797 229.875 694.661C230.224 694.524 230.495 694.335 230.686 694.092C230.878 693.849 230.974 693.57 230.974 693.254C230.974 692.96 230.887 692.713 230.712 692.513C230.541 692.312 230.29 692.142 229.958 692.001C229.63 691.861 229.227 691.733 228.75 691.618L227.324 691.26C226.22 690.991 225.349 690.572 224.71 690.001C224.071 689.43 223.753 688.661 223.757 687.693C223.753 686.901 223.964 686.208 224.39 685.616C224.821 685.023 225.411 684.561 226.161 684.229C226.911 683.896 227.763 683.73 228.718 683.73C229.689 683.73 230.537 683.896 231.262 684.229C231.99 684.561 232.557 685.023 232.962 685.616C233.367 686.208 233.576 686.894 233.588 687.674H230.936ZM244.795 697V683.909H249.96C250.948 683.909 251.792 684.086 252.491 684.44C253.194 684.789 253.729 685.286 254.095 685.929C254.466 686.568 254.652 687.32 254.652 688.185C254.652 689.055 254.464 689.803 254.089 690.429C253.714 691.051 253.171 691.528 252.459 691.861C251.752 692.193 250.895 692.359 249.889 692.359H246.431V690.135H249.442C249.97 690.135 250.409 690.062 250.759 689.918C251.108 689.773 251.368 689.555 251.539 689.266C251.713 688.976 251.801 688.616 251.801 688.185C251.801 687.751 251.713 687.384 251.539 687.086C251.368 686.788 251.106 686.562 250.752 686.408C250.403 686.251 249.962 686.172 249.429 686.172H247.563V697H244.795ZM251.865 691.043L255.118 697H252.063L248.88 691.043H251.865ZM259.108 697V683.909H267.929V686.191H261.875V689.31H267.475V691.592H261.875V694.718H267.954V697H259.108ZM277.27 697H272.629V683.909H277.308C278.625 683.909 279.758 684.171 280.709 684.695C281.659 685.215 282.39 685.963 282.901 686.939C283.417 687.915 283.674 689.082 283.674 690.442C283.674 691.805 283.417 692.977 282.901 693.957C282.39 694.937 281.655 695.69 280.696 696.214C279.741 696.738 278.599 697 277.27 697ZM275.397 694.629H277.155C277.973 694.629 278.661 694.484 279.219 694.194C279.782 693.9 280.204 693.446 280.485 692.832C280.77 692.214 280.913 691.418 280.913 690.442C280.913 689.474 280.77 688.684 280.485 688.07C280.204 687.457 279.784 687.005 279.226 686.715C278.667 686.425 277.979 686.281 277.161 686.281H275.397V694.629ZM288.225 697V683.909H297.046V686.191H290.992V689.31H296.592V691.592H290.992V694.718H297.071V697H288.225ZM301.746 697V683.909H310.414V686.191H304.514V689.31H309.839V691.592H304.514V697H301.746ZM317.543 683.909V697H314.775V683.909H317.543ZM333.27 683.909V697H330.879L325.184 688.761H325.088V697H322.32V683.909H324.749L330.4 692.142H330.515V683.909H333.27ZM338.057 697V683.909H346.878V686.191H340.824V689.31H346.424V691.592H340.824V694.718H346.903V697H338.057ZM356.219 697H351.578V683.909H356.257C357.574 683.909 358.707 684.171 359.658 684.695C360.608 685.215 361.339 685.963 361.85 686.939C362.366 687.915 362.624 689.082 362.624 690.442C362.624 691.805 362.366 692.977 361.85 693.957C361.339 694.937 360.604 695.69 359.645 696.214C358.69 696.738 357.548 697 356.219 697ZM354.346 694.629H356.104C356.922 694.629 357.61 694.484 358.168 694.194C358.731 693.9 359.153 693.446 359.434 692.832C359.72 692.214 359.862 691.418 359.862 690.442C359.862 689.474 359.72 688.684 359.434 688.07C359.153 687.457 358.733 687.005 358.175 686.715C357.617 686.425 356.928 686.281 356.11 686.281H354.346V694.629ZM367.888 697.166C367.466 697.166 367.104 697.017 366.802 696.719C366.503 696.416 366.354 696.054 366.354 695.632C366.354 695.214 366.503 694.857 366.802 694.558C367.104 694.26 367.466 694.111 367.888 694.111C368.297 694.111 368.655 694.26 368.962 694.558C369.269 694.857 369.422 695.214 369.422 695.632C369.422 695.913 369.35 696.171 369.205 696.406C369.064 696.636 368.879 696.821 368.649 696.962C368.419 697.098 368.165 697.166 367.888 697.166Z" fill="#FF6B4A"/>
</svg>
